<svg width="620" height="457" viewBox="0 0 620 457" fill="none" xmlns="http://www.w3.org/2000/svg">
<path d="M337.142 392.652C349.5 397.992 351.483 414.683 340.714 422.73L331.33 429.743C320.54 437.807 305.044 431.145 303.454 417.758L302.068 406.092C300.478 392.705 313.988 382.648 326.372 387.999L337.142 392.652Z" fill="#2E3035" stroke="black"/>
<path d="M318.599 392.125C318.599 394.016 317.054 395.554 315.141 395.554C313.228 395.554 311.683 394.016 311.683 392.125C311.683 390.235 313.228 388.696 315.141 388.696C317.054 388.696 318.599 390.235 318.599 392.125Z" fill="#5E5F6C" stroke="black"/>
<path d="M347.625 405.223C347.625 407.237 346.364 408.652 345.047 408.652C343.729 408.652 342.468 407.237 342.468 405.223C342.468 403.208 343.729 401.794 345.047 401.794C346.364 401.794 347.625 403.208 347.625 405.223Z" fill="#5E5F6C" stroke="black"/>
<path d="M322.997 432.728C322.997 433.826 321.921 434.848 320.419 434.848C318.916 434.848 317.84 433.826 317.84 432.728C317.84 431.631 318.916 430.609 320.419 430.609C321.921 430.609 322.997 431.631 322.997 432.728Z" fill="#5E5F6C" stroke="black"/>
<path d="M308.924 419.194C308.924 420.677 307.9 421.75 306.785 421.75C305.67 421.75 304.646 420.677 304.646 419.194C304.646 417.711 305.67 416.638 306.785 416.638C307.9 416.638 308.924 417.711 308.924 419.194Z" fill="#5E5F6C" stroke="black"/>
<path d="M328.275 413.082C328.275 414.972 326.73 416.511 324.816 416.511C322.903 416.511 321.358 414.972 321.358 413.082C321.358 411.191 322.903 409.652 324.816 409.652C326.73 409.652 328.275 411.191 328.275 413.082Z" fill="#5E5F6C" stroke="black"/>
<path d="M565.624 19.367C581.8 23.5965 586 44.5676 572.056 51.4892L568.115 53.4459C557.562 58.6843 543.733 51.4787 541.332 39.4911L540.701 36.3387C538.301 24.351 548.809 14.9702 561.051 18.1713L565.624 19.367Z" fill="#2E3035" stroke="black"/>
<path d="M559.174 23.0572C559.182 23.6264 558.826 24.2185 558.095 24.6985C557.37 25.1745 556.332 25.4938 555.155 25.5106C553.978 25.5274 552.932 25.2379 552.193 24.7828C551.448 24.3239 551.076 23.7422 551.068 23.1731C551.06 22.6039 551.415 22.0118 552.147 21.5318C552.872 21.0558 553.91 20.7365 555.087 20.7197C556.263 20.7029 557.31 20.9924 558.049 21.4475C558.793 21.9064 559.165 22.4881 559.174 23.0572Z" fill="#5E5F6C" stroke="black"/>
<path d="M573.623 25.9025C573.641 27.1361 572.395 28.316 570.617 28.3414C568.838 28.3668 567.559 27.223 567.541 25.9894C567.524 24.7559 568.77 23.576 570.548 23.5506C572.326 23.5251 573.606 24.669 573.623 25.9025Z" fill="#5E5F6C" stroke="black"/>
<path d="M564.66 52.9039C564.663 53.168 564.465 53.5203 563.896 53.8409C563.347 54.1509 562.55 54.3646 561.639 54.3776C560.728 54.3906 559.926 54.1998 559.367 53.9056C558.79 53.6014 558.581 53.2549 558.578 52.9908C558.574 52.7266 558.772 52.3744 559.341 52.0537C559.891 51.7437 560.687 51.53 561.598 51.517C562.509 51.504 563.312 51.6949 563.87 51.989C564.448 52.2933 564.656 52.6397 564.66 52.9039Z" fill="#5E5F6C" stroke="black"/>
<path d="M548.33 43.1622C548.336 43.5891 548.11 44.0189 547.66 44.3629C547.21 44.7068 546.561 44.9398 545.82 44.9504C545.078 44.961 544.423 44.7466 543.963 44.4157C543.504 44.0847 543.265 43.6615 543.259 43.2346C543.253 42.8078 543.479 42.3779 543.929 42.034C544.379 41.69 545.028 41.457 545.769 41.4464C546.511 41.4358 547.166 41.6502 547.626 41.9811C548.085 42.3121 548.324 42.7353 548.33 43.1622Z" fill="#5E5F6C" stroke="black"/>
<path d="M570.523 38.3402C570.531 38.9094 570.176 39.5015 569.444 39.9815C568.719 40.4575 567.681 40.7768 566.505 40.7936C565.328 40.8104 564.281 40.5209 563.543 40.0658C562.798 39.6069 562.426 39.0252 562.418 38.4561C562.409 37.8869 562.765 37.2948 563.496 36.8148C564.222 36.3388 565.259 36.0195 566.436 36.0027C567.613 35.9859 568.659 36.2754 569.398 36.7305C570.143 37.1894 570.515 37.7711 570.523 38.3402Z" fill="#5E5F6C" stroke="black"/>
<path d="M463.013 225.016C463.198 237.84 449.689 246.335 437.897 240.81L427.788 236.074C415.243 230.196 414.067 213.068 425.707 205.749L435.658 199.491C447.297 192.171 462.659 200.379 462.855 214.022L463.013 225.016Z" fill="#2E3035" stroke="black"/>
<path d="M455.721 207.244C453.916 208.12 451.853 207.45 451.075 205.849C450.298 204.248 451.047 202.212 452.851 201.336C454.656 200.459 456.719 201.129 457.496 202.73C458.274 204.331 457.525 206.367 455.721 207.244Z" fill="#5E5F6C" stroke="black"/>
<path d="M455.643 238.131C454.717 238.581 453.764 238.707 452.983 238.57C452.202 238.432 451.633 238.043 451.365 237.493C451.098 236.942 451.144 236.254 451.519 235.555C451.894 234.856 452.582 234.186 453.508 233.735C454.435 233.285 455.388 233.159 456.168 233.296C456.95 233.434 457.519 233.823 457.786 234.374C458.054 234.924 458.008 235.613 457.633 236.312C457.258 237.01 456.57 237.681 455.643 238.131Z" fill="#5E5F6C" stroke="black"/>
<path d="M419.734 229.396C418.669 229.914 417.283 229.415 416.676 228.166C416.07 226.917 416.534 225.519 417.599 225.001C418.665 224.484 420.051 224.983 420.657 226.232C421.264 227.481 420.8 228.879 419.734 229.396Z" fill="#5E5F6C" stroke="black"/>
<path d="M426.464 211.171C425.039 211.862 423.627 211.43 423.183 210.515C422.739 209.6 423.272 208.224 424.696 207.532C426.121 206.84 427.533 207.272 427.977 208.187C428.422 209.102 427.888 210.479 426.464 211.171Z" fill="#5E5F6C" stroke="black"/>
<path d="M440.24 225.046C438.436 225.922 436.373 225.252 435.595 223.651C434.817 222.05 435.566 220.014 437.371 219.138C439.175 218.261 441.238 218.931 442.016 220.532C442.794 222.134 442.045 224.169 440.24 225.046Z" fill="#5E5F6C" stroke="black"/>
<path d="M315.511 151.924C321.399 165.688 308.409 180.01 294.138 175.49L281.903 171.615C269.746 167.764 265.657 152.621 274.225 143.175L281.412 135.25C289.979 125.804 305.449 128.4 310.464 140.125L315.511 151.924Z" fill="#2E3035" stroke="black"/>
<path d="M292.177 152.183C291.324 152.926 290.4 153.386 289.613 153.548C288.81 153.713 288.265 153.553 287.99 153.237C287.715 152.922 287.631 152.36 287.904 151.587C288.172 150.83 288.755 149.977 289.608 149.234C290.46 148.491 291.385 148.031 292.171 147.869C292.975 147.704 293.52 147.864 293.794 148.18C294.069 148.495 294.154 149.057 293.88 149.83C293.612 150.587 293.03 151.44 292.177 152.183Z" fill="#5E5F6C" stroke="black"/>
<path d="M304.663 169.857C302.904 171.39 300.693 171.389 299.676 170.223C298.66 169.056 298.962 166.866 300.721 165.333C302.48 163.8 304.691 163.801 305.708 164.967C306.724 166.134 306.422 168.324 304.663 169.857Z" fill="#5E5F6C" stroke="black"/>
<path d="M282.103 164.548C281.115 165.41 279.385 165.234 278.248 163.929C277.11 162.623 277.173 160.886 278.162 160.025C279.15 159.163 280.88 159.338 282.017 160.644C283.155 161.95 283.092 163.687 282.103 164.548Z" fill="#5E5F6C" stroke="black"/>
<path d="M283.278 142.302C281.973 143.44 280.236 143.377 279.374 142.388C278.513 141.4 278.688 139.671 279.994 138.533C281.299 137.395 283.036 137.458 283.898 138.447C284.759 139.435 284.584 141.165 283.278 142.302Z" fill="#5E5F6C" stroke="black"/>
<path d="M310.403 155.994C310.7 155.735 310.854 155.196 310.665 154.367C310.481 153.562 309.991 152.608 309.218 151.721C308.445 150.834 307.567 150.218 306.794 149.926C305.999 149.625 305.444 149.704 305.148 149.962C304.851 150.22 304.697 150.76 304.886 151.588C305.07 152.394 305.56 153.347 306.333 154.235C307.106 155.122 307.984 155.738 308.756 156.03C309.552 156.331 310.107 156.252 310.403 155.994Z" fill="#5E5F6C" stroke="black"/>
<path d="M568.63 371.075C572.677 383.859 561.431 396.258 548.314 393.475L534.756 390.598C521.548 387.796 516.355 371.724 525.426 361.722L534.801 351.386C543.872 341.384 560.373 344.989 564.448 357.862L568.63 371.075Z" fill="#2E3035" stroke="black"/>
<path d="M553.011 356.207C551.92 357.157 550.079 356.981 548.907 355.635C547.734 354.289 547.811 352.442 548.902 351.491C549.993 350.541 551.833 350.717 553.006 352.063C554.178 353.409 554.101 355.256 553.011 356.207Z" fill="#5E5F6C" stroke="black"/>
<path d="M561.467 389.599C559.708 391.132 557.497 391.132 556.481 389.965C555.464 388.799 555.767 386.608 557.526 385.076C559.285 383.543 561.496 383.543 562.512 384.71C563.529 385.876 563.227 388.066 561.467 389.599Z" fill="#5E5F6C" stroke="black"/>
<path d="M531.908 384.29C530.919 385.152 529.19 384.977 528.052 383.671C526.914 382.365 526.977 380.628 527.966 379.767C528.954 378.905 530.684 379.08 531.822 380.386C532.959 381.692 532.896 383.429 531.908 384.29Z" fill="#5E5F6C" stroke="black"/>
<path d="M533.083 362.045C531.777 363.183 530.04 363.119 529.178 362.131C528.317 361.142 528.492 359.413 529.798 358.275C531.104 357.137 532.841 357.201 533.702 358.189C534.563 359.178 534.388 360.907 533.083 362.045Z" fill="#5E5F6C" stroke="black"/>
<circle cx="550.185" cy="371.017" r="4" transform="rotate(48.9329 550.185 371.017)" fill="#5E5F6C" stroke="black"/>
<path d="M68.5987 69.9808C81.8036 67.6288 92.637 80.3957 88.1671 93.0417L84.248 104.129C79.7487 116.859 63.1402 119.914 54.405 109.62L46.7464 100.595C38.0111 90.3003 43.7293 74.4106 57.021 72.043L68.5987 69.9808Z" fill="#2E3035" stroke="black"/>
<circle cx="47.2382" cy="86.2382" r="4" transform="rotate(-33.5912 47.2382 86.2382)" fill="#5E5F6C" stroke="black"/>
<path d="M84.9042 78.0252C86.1952 79.9689 85.9071 82.161 84.6183 83.017C83.3294 83.873 81.1971 83.2884 79.9062 81.3447C78.6152 79.401 78.9033 77.2089 80.1922 76.3529C81.481 75.4969 83.6133 76.0814 84.9042 78.0252Z" fill="#5E5F6C" stroke="black"/>
<path d="M81.3801 105.6C82.1055 106.693 81.707 108.384 80.2643 109.343C78.8215 110.301 77.1075 110.012 76.3821 108.92C75.6567 107.828 76.0552 106.136 77.4979 105.178C78.9407 104.219 80.6547 104.508 81.3801 105.6Z" fill="#5E5F6C" stroke="black"/>
<path d="M59.4765 101.541C60.4347 102.984 60.1459 104.698 59.0537 105.423C57.9615 106.149 56.2696 105.75 55.3114 104.307C54.3532 102.865 54.6419 101.151 55.7341 100.425C56.8264 99.6997 58.5182 100.098 59.4765 101.541Z" fill="#5E5F6C" stroke="black"/>
<circle cx="70.5977" cy="85.7512" r="4" transform="rotate(-33.5912 70.5977 85.7512)" fill="#5E5F6C" stroke="black"/>
<path d="M141.119 312.585C154.329 310.574 164.818 323.537 160.113 336.059L154.928 349.858C150.168 362.523 133.474 365.233 124.968 354.721L115.596 343.138C107.09 332.626 113.2 316.836 126.561 314.802L141.119 312.585Z" fill="#2E3035" stroke="black"/>
<path d="M123.081 322.615C124.15 324.306 123.651 326.534 121.974 327.594C120.297 328.653 118.071 328.148 117.002 326.457C115.933 324.765 116.433 322.537 118.109 321.478C119.786 320.418 122.013 320.924 123.081 322.615Z" fill="#5E5F6C" stroke="black"/>
<path d="M155.803 318.174C156.938 319.97 156.625 321.934 155.466 322.666C154.306 323.399 152.398 322.839 151.263 321.043C150.128 319.246 150.441 317.283 151.601 316.55C152.76 315.817 154.668 316.377 155.803 318.174Z" fill="#5E5F6C" stroke="black"/>
<path d="M147.429 353.588C148.056 354.579 147.674 356.089 146.358 356.92C145.043 357.751 143.515 357.448 142.889 356.457C142.263 355.465 142.645 353.955 143.96 353.124C145.275 352.293 146.803 352.596 147.429 353.588Z" fill="#5E5F6C" stroke="black"/>
<path d="M128.904 349.974C129.743 351.302 129.443 352.831 128.463 353.45C127.482 354.07 125.972 353.685 125.133 352.357C124.295 351.03 124.595 349.501 125.575 348.881C126.556 348.262 128.066 348.647 128.904 349.974Z" fill="#5E5F6C" stroke="black"/>
<path d="M143.275 335.831C144.344 337.522 143.845 339.751 142.168 340.81C140.491 341.87 138.265 341.364 137.196 339.673C136.127 337.982 136.627 335.753 138.303 334.694C139.98 333.634 142.207 334.14 143.275 335.831Z" fill="#5E5F6C" stroke="black"/>
</svg>
