<svg width="136" height="130" viewBox="0 0 136 130" fill="none" xmlns="http://www.w3.org/2000/svg">
<rect x="0.5" y="45.5" width="96.5505" height="57.5303" rx="9.5" fill="black" stroke="black"/>
<mask id="path-2-inside-1_244_214" fill="white">
<path d="M52.5272 27.3892C52.5272 42.5158 40.7686 54.7784 26.2636 54.7784C11.7586 54.7784 0 42.5158 0 27.3892C0 12.2626 11.7586 0 26.2636 0C40.7686 0 52.5272 12.2626 52.5272 27.3892ZM21.0109 27.3892C21.0109 30.4145 23.3626 32.867 26.2636 32.867C29.1646 32.867 31.5163 30.4145 31.5163 27.3892C31.5163 24.3639 29.1646 21.9113 26.2636 21.9113C23.3626 21.9113 21.0109 24.3639 21.0109 27.3892Z"/>
</mask>
<path d="M52.5272 27.3892C52.5272 42.5158 40.7686 54.7784 26.2636 54.7784C11.7586 54.7784 0 42.5158 0 27.3892C0 12.2626 11.7586 0 26.2636 0C40.7686 0 52.5272 12.2626 52.5272 27.3892ZM21.0109 27.3892C21.0109 30.4145 23.3626 32.867 26.2636 32.867C29.1646 32.867 31.5163 30.4145 31.5163 27.3892C31.5163 24.3639 29.1646 21.9113 26.2636 21.9113C23.3626 21.9113 21.0109 24.3639 21.0109 27.3892Z" fill="black" stroke="black" stroke-width="2" mask="url(#path-2-inside-1_244_214)"/>
<mask id="path-3-inside-2_244_214" fill="white">
<path d="M97.5506 27.3892C97.5506 42.5158 85.792 54.7784 71.287 54.7784C56.7821 54.7784 45.0234 42.5158 45.0234 27.3892C45.0234 12.2626 56.7821 0 71.287 0C85.792 0 97.5506 12.2626 97.5506 27.3892ZM66.0343 27.3892C66.0343 30.4145 68.386 32.867 71.287 32.867C74.188 32.867 76.5398 30.4145 76.5398 27.3892C76.5398 24.3639 74.188 21.9113 71.287 21.9113C68.386 21.9113 66.0343 24.3639 66.0343 27.3892Z"/>
</mask>
<path d="M97.5506 27.3892C97.5506 42.5158 85.792 54.7784 71.287 54.7784C56.7821 54.7784 45.0234 42.5158 45.0234 27.3892C45.0234 12.2626 56.7821 0 71.287 0C85.792 0 97.5506 12.2626 97.5506 27.3892ZM66.0343 27.3892C66.0343 30.4145 68.386 32.867 71.287 32.867C74.188 32.867 76.5398 30.4145 76.5398 27.3892C76.5398 24.3639 74.188 21.9113 71.287 21.9113C68.386 21.9113 66.0343 24.3639 66.0343 27.3892Z" fill="black" stroke="black" stroke-width="2" mask="url(#path-3-inside-2_244_214)"/>
<path d="M86.0444 63.7808C86.0444 59.7134 88.6339 56.0972 92.4846 54.7871L122.01 44.7419C128.172 42.6454 134.57 47.2266 134.57 53.7356V93.6119C134.57 100.249 127.938 104.84 121.726 102.504L92.2007 91.4014C88.497 90.0087 86.0444 86.4662 86.0444 82.5093V63.7808Z" fill="black" stroke="black"/>
<line x1="44.5179" y1="103.264" x2="17.7195" y2="124.32" stroke="black" stroke-width="6" stroke-linecap="round"/>
<line x1="53.0013" y1="103.177" x2="79.1439" y2="125.042" stroke="black" stroke-width="6" stroke-linecap="round"/>
</svg>
