<svg width="120" height="119" viewBox="0 0 120 119" fill="none" xmlns="http://www.w3.org/2000/svg">
<path d="M61.6767 35.0368C61.697 33.6891 62.9202 32.8571 64.1445 33.3581L81.8218 40.5918C82.6129 40.9155 83.1745 41.7188 83.2219 42.5946L83.4277 46.3917C83.5013 47.7496 82.3445 48.6821 81.0962 48.2711L63.1357 42.357C62.2287 42.0583 61.5845 41.1343 61.5993 40.1534L61.6767 35.0368Z" fill="black" stroke="black" stroke-width="6"/>
<rect x="59.8894" y="41.1718" width="2.02262" height="34.3845" transform="rotate(1.22429 59.8894 41.1718)" fill="black" stroke="black" stroke-width="2.02262"/>
<path d="M59.1307 78.2454C58.9748 85.5408 54.1081 90.3105 49.4 90.2098C44.6919 90.1092 40.0334 85.136 40.1894 77.8406C40.3453 70.5451 45.212 65.7755 49.92 65.8761C54.6281 65.9767 59.2866 70.9499 59.1307 78.2454Z" fill="black" stroke="black" stroke-width="6"/>
<circle cx="60.4097" cy="59.4352" r="54" stroke="black" stroke-width="6"/>
</svg>
