<svg width="140" height="145" viewBox="0 0 140 145" fill="none" xmlns="http://www.w3.org/2000/svg">
<rect y="0.816895" width="140" height="143.805" rx="20" fill="#08AAE3"/>
<rect y="0.816895" width="140" height="143.805" rx="20" fill="#054061" fill-opacity="0.2"/>
<path d="M27.1784 37.6908H26.0384V43.4708H27.1784C28.0984 43.4708 28.805 43.2108 29.2984 42.6908C29.805 42.1574 30.0584 41.4508 30.0584 40.5708C30.0584 39.6774 29.805 38.9774 29.2984 38.4708C28.805 37.9508 28.0984 37.6908 27.1784 37.6908ZM24.0384 35.8308H27.7784C27.8184 35.8308 27.8584 35.8308 27.8984 35.8308C30.0984 35.8308 31.7317 36.5108 32.7984 37.8708C33.385 38.6174 33.6784 39.5174 33.6784 40.5708C33.6784 41.6241 33.385 42.5174 32.7984 43.2508C31.7184 44.6241 30.045 45.3108 27.7784 45.3108H26.0184V48.4908C26.0184 49.2108 26.2384 49.6841 26.6784 49.9108C26.1717 50.4841 25.5584 50.7708 24.8384 50.7708C23.5317 50.7708 22.8784 49.9774 22.8784 48.3908V38.0908C22.8784 37.4108 22.6517 36.9508 22.1984 36.7108C22.6917 36.1241 23.305 35.8308 24.0384 35.8308ZM44.636 38.0708V42.7708H45.776C46.7093 42.7708 47.4227 42.5708 47.916 42.1708C48.4093 41.7574 48.656 41.1774 48.656 40.4308C48.656 39.6708 48.4093 39.0908 47.916 38.6908C47.4227 38.2774 46.7093 38.0708 45.776 38.0708H44.636ZM53.076 49.4308C52.6227 50.3241 51.9027 50.7708 50.916 50.7708C50.396 50.7708 49.9227 50.6374 49.496 50.3708C49.0693 50.1041 48.6093 49.5774 48.116 48.7908L45.796 45.0108H44.616V48.4908C44.616 49.2108 44.836 49.6841 45.276 49.9108C44.7693 50.4841 44.156 50.7708 43.436 50.7708C42.1293 50.7708 41.476 49.9774 41.476 48.3908V38.0908C41.476 37.4108 41.2493 36.9508 40.796 36.7108C41.2893 36.1241 41.9027 35.8308 42.636 35.8308H45.956C47.5693 35.8308 48.956 36.2374 50.116 37.0508C51.2893 37.8508 51.876 38.9774 51.876 40.4308C51.876 41.3774 51.616 42.1908 51.096 42.8708C50.576 43.5374 49.876 44.0574 48.996 44.4308L51.356 47.9308C51.836 48.5841 52.4093 49.0841 53.076 49.4308ZM64.7916 37.9908V48.4908C64.7916 49.2108 65.005 49.6841 65.4316 49.9108C64.925 50.4841 64.325 50.7708 63.6316 50.7708C62.9383 50.7708 62.4316 50.5774 62.1116 50.1908C61.7916 49.8041 61.6316 49.2041 61.6316 48.3908V37.8708C61.6316 37.1774 61.4116 36.7174 60.9716 36.4908C61.4516 35.9174 62.0583 35.6308 62.7916 35.6308C64.125 35.6308 64.7916 36.4174 64.7916 37.9908ZM91.2307 50.3508C90.7374 50.5774 90.1974 50.6908 89.6107 50.6908C89.0374 50.6908 88.584 50.5441 88.2507 50.2508C87.9174 49.9441 87.7307 49.4108 87.6907 48.6508L87.1307 38.5308L83.6307 49.6308C83.4307 50.2441 83.004 50.5508 82.3507 50.5508C81.9774 50.5374 81.7174 50.4574 81.5707 50.3108C81.424 50.1641 81.304 49.9308 81.2107 49.6108L77.5907 38.5108L77.0107 48.5908C76.9574 49.3374 76.804 49.8908 76.5507 50.2508C76.3107 50.5974 75.8774 50.7708 75.2507 50.7708C74.624 50.7708 74.064 50.5108 73.5707 49.9908C73.9574 49.6308 74.1707 49.0974 74.2107 48.3908L75.0107 38.1708C75.0107 38.0908 75.0107 38.0041 75.0107 37.9108C75.0107 37.2841 74.8774 36.7841 74.6107 36.4108C75.5707 35.8908 76.5974 35.6308 77.6907 35.6308C78.784 35.6308 79.5507 35.8908 79.9907 36.4108C80.444 36.9308 80.8374 37.8108 81.1707 39.0508L82.7707 44.7908L84.3307 39.1508C84.7174 37.7508 85.204 36.8174 85.7907 36.3508C86.3907 35.8708 87.164 35.6308 88.1107 35.6308C89.0707 35.6308 89.8907 35.7774 90.5707 36.0708C90.3307 36.4708 90.2107 36.9641 90.2107 37.5508C90.2107 37.6708 90.2174 37.8041 90.2307 37.9508L90.8307 48.3108C90.8574 49.2441 90.9907 49.9241 91.2307 50.3508ZM105.105 47.9908H108.325C109.272 47.9908 110.112 47.7241 110.845 47.1908C111.272 47.5508 111.485 48.0241 111.485 48.6108C111.485 49.1974 111.272 49.6708 110.845 50.0308C110.419 50.3774 109.779 50.5508 108.925 50.5508H104.585C103.252 50.5508 102.272 50.2641 101.645 49.6908C101.032 49.1174 100.725 48.2108 100.725 46.9708V38.0908C100.725 37.4108 100.499 36.9508 100.045 36.7108C100.539 36.1241 101.145 35.8308 101.865 35.8308H108.545C109.599 35.8308 110.352 35.9708 110.805 36.2508C111.259 36.5174 111.485 36.9174 111.485 37.4508C111.485 37.9841 111.272 38.4308 110.845 38.7908C110.205 38.5374 109.365 38.4108 108.325 38.4108H103.865V41.4108H106.625C107.692 41.4108 108.445 41.5241 108.885 41.7508C109.339 41.9774 109.565 42.3641 109.565 42.9108C109.565 43.4441 109.352 43.8774 108.925 44.2108C108.445 44.0508 107.605 43.9708 106.405 43.9708H103.865V46.5708C103.865 47.5174 104.279 47.9908 105.105 47.9908ZM34.3808 67.1508C34.9274 66.8041 35.5074 66.6308 36.1208 66.6308C36.7341 66.6308 37.2074 66.7908 37.5408 67.1108C37.8741 67.4308 38.0408 67.8374 38.0408 68.3308C38.0408 68.8241 37.9208 69.3574 37.6808 69.9308L33.8408 79.2308C33.4141 80.2574 33.0341 80.9374 32.7008 81.2708C32.3674 81.6041 31.8341 81.7708 31.1008 81.7708C30.7141 81.7708 30.4008 81.7374 30.1608 81.6708C29.9341 81.6041 29.7208 81.4508 29.5208 81.2108C29.3341 80.9708 29.1808 80.7241 29.0608 80.4708C28.9541 80.2174 28.8008 79.8041 28.6008 79.2308L24.9808 69.0308C24.7274 68.3241 24.3741 67.8508 23.9208 67.6108C24.5474 66.9574 25.2408 66.6308 26.0008 66.6308C26.5474 66.6308 27.0008 66.7974 27.3608 67.1308C27.7208 67.4508 28.0408 68.0308 28.3208 68.8708L31.4008 78.4908L34.4408 69.8708C34.6941 69.0974 34.8208 68.5241 34.8208 68.1508C34.8208 67.7641 34.6741 67.4308 34.3808 67.1508ZM49.7702 68.9908V79.4908C49.7702 80.2108 49.9835 80.6841 50.4102 80.9108C49.9035 81.4841 49.3035 81.7708 48.6102 81.7708C47.9168 81.7708 47.4102 81.5774 47.0902 81.1908C46.7702 80.8041 46.6102 80.2041 46.6102 79.3908V68.8708C46.6102 68.1774 46.3902 67.7174 45.9502 67.4908C46.4302 66.9174 47.0368 66.6308 47.7702 66.6308C49.1035 66.6308 49.7702 67.4174 49.7702 68.9908ZM60.0292 78.1708V69.8708C60.0292 68.9508 59.8492 68.2174 59.4892 67.6708C61.3959 66.9774 63.2559 66.6308 65.0692 66.6308C67.3759 66.6308 69.2426 67.2974 70.6692 68.6308C72.1092 69.9641 72.8292 71.8241 72.8292 74.2108C72.8292 76.5841 72.1092 78.4374 70.6692 79.7708C69.2426 81.1041 67.3759 81.7708 65.0692 81.7708C63.3359 81.7708 62.0626 81.4908 61.2492 80.9308C60.4359 80.3574 60.0292 79.4374 60.0292 78.1708ZM63.1892 78.3908C63.1892 79.2174 63.8492 79.6308 65.1692 79.6308C66.5026 79.6308 67.5692 79.1374 68.3692 78.1508C69.1826 77.1641 69.5892 75.8508 69.5892 74.2108C69.5892 72.5708 69.1826 71.2508 68.3692 70.2508C67.5692 69.2508 66.4692 68.7508 65.0692 68.7508C64.4559 68.7508 63.8292 68.8708 63.1892 69.1108V78.3908ZM86.7439 78.9908H89.9639C90.9106 78.9908 91.7506 78.7241 92.4839 78.1908C92.9106 78.5508 93.1239 79.0241 93.1239 79.6108C93.1239 80.1974 92.9106 80.6708 92.4839 81.0308C92.0572 81.3774 91.4172 81.5508 90.5639 81.5508H86.2239C84.8906 81.5508 83.9106 81.2641 83.2839 80.6908C82.6706 80.1174 82.3639 79.2108 82.3639 77.9708V69.0908C82.3639 68.4108 82.1372 67.9508 81.6839 67.7108C82.1772 67.1241 82.7839 66.8308 83.5039 66.8308H90.1839C91.2372 66.8308 91.9906 66.9708 92.4439 67.2508C92.8972 67.5174 93.1239 67.9174 93.1239 68.4508C93.1239 68.9841 92.9106 69.4308 92.4839 69.7908C91.8439 69.5374 91.0039 69.4108 89.9639 69.4108H85.5039V72.4108H88.2639C89.3306 72.4108 90.0839 72.5241 90.5239 72.7508C90.9772 72.9774 91.2039 73.3641 91.2039 73.9108C91.2039 74.4441 90.9906 74.8774 90.5639 75.2108C90.0839 75.0508 89.2439 74.9708 88.0439 74.9708H85.5039V77.5708C85.5039 78.5174 85.9172 78.9908 86.7439 78.9908ZM108.6 79.7908C109.774 79.7908 110.6 79.2708 111.08 78.2308C111.454 77.3908 111.64 76.3374 111.64 75.0708C111.64 74.7908 111.634 74.4974 111.62 74.1908C111.527 72.5108 111.18 71.1574 110.58 70.1308C109.98 69.1041 109.094 68.5908 107.92 68.5908C105.894 68.5908 104.88 70.1841 104.88 73.3708C104.88 76.0508 105.454 77.9308 106.6 79.0108C107.147 79.5308 107.814 79.7908 108.6 79.7908ZM113.38 68.8508C113.887 69.5441 114.26 70.3374 114.5 71.2308C114.754 72.1108 114.88 73.0974 114.88 74.1908C114.88 75.2708 114.754 76.2574 114.5 77.1508C114.26 78.0441 113.887 78.8441 113.38 79.5508C112.874 80.2574 112.18 80.8041 111.3 81.1908C110.434 81.5774 109.42 81.7708 108.26 81.7708C106.047 81.7708 104.387 81.0708 103.28 79.6708C102.187 78.2574 101.64 76.4308 101.64 74.1908C101.64 71.9508 102.187 70.1308 103.28 68.7308C104.387 67.3308 106.047 66.6308 108.26 66.6308C109.434 66.6308 110.454 66.8241 111.32 67.2108C112.187 67.5974 112.874 68.1441 113.38 68.8508Z" fill="white"/>
<path d="M28 102.508C28 111.999 44.3674 117.847 55.1831 120.586C66.4256 123.434 81.3251 121.82 91.6148 117.785C96.2795 115.956 102.23 112.864 104 109.128" stroke="white" stroke-width="3" stroke-linecap="round"/>
<path d="M98.3783 105.305C101.023 105.828 104.022 102.488 106.778 102.296C107.847 102.221 109.566 102.098 110.556 101.704C111.019 101.52 109.418 107.143 109.22 107.777C108.633 109.666 108.614 111.505 108.037 113.358" stroke="white" stroke-width="3" stroke-linecap="round"/>
</svg>
